{
  "accessors": [
    {
      "bufferView": 2,
      "componentType": 5126,
      "count": 21724,
      "max": [
        2.0488767623901367,
        1.8233250379562378,
        3.7564244270324707
      ],
      "min": [
        -1.5560938119888306,
        -1.5560938119888306,
        -0.006700038909912109
      ],
      "type": "VEC3"
    },
    {
      "bufferView": 2,
      "byteOffset": 260688,
      "componentType": 5126,
      "count": 21724,
      "max": [
        1.0,
        1.0,
        1.0
      ],
      "min": [
        -1.0,
        -1.0,
        -1.0
      ],
      "type": "VEC3"
    },
    {
      "bufferView": 3,
      "componentType": 5126,
      "count": 21724,
      "max": [
        1.0,
        1.0,
        1.0,
        1.0
      ],
      "min": [
        -1.0,
        -1.0,
        -1.0,
        -1.0
      ],
      "type": "VEC4"
    },
    {
      "bufferView": 1,
      "componentType": 5126,
      "count": 21724,
      "max": [
        0.9896397590637207,
        0.9910976886749268
      ],
      "min": [
        0.008386429399251938,
        0.01118720043450594
      ],
      "type": "VEC2"
    },
    {
      "bufferView": 0,
      "componentType": 5125,
      "count": 69849,
      "type": "SCALAR"
    },
    {
      "bufferView": 2,
      "byteOffset": 521376,
      "componentType": 5126,
      "count": 344,
      "max": [
        0.920036792755127,
        1.508689284324646,
        3.111211061477661
      ],
      "min": [
        -0.920036792755127,
        -1.1212235689163208,
        0.2772707939147949
      ],
      "type": "VEC3"
    },
    {
      "bufferView": 2,
      "byteOffset": 525504,
      "componentType": 5126,
      "count": 344,
      "max": [
        1.0,
        1.0,
        2.5005547286127694e-06
      ],
      "min": [
        -1.0,
        -1.0,
        -1.0
      ],
      "type": "VEC3"
    },
    {
      "bufferView": 1,
      "byteOffset": 173792,
      "componentType": 5126,
      "count": 344,
      "max": [
        0.9087467789649963,
        1.1741441488265991
      ],
      "min": [
        0.35865864157676697,
        0.8986341953277588
      ],
      "type": "VEC2"
    },
    {
      "bufferView": 0,
      "byteOffset": 279396,
      "componentType": 5125,
      "count": 1374,
      "type": "SCALAR"
    },
    {
      "bufferView": 2,
      "byteOffset": 529632,
      "componentType": 5126,
      "count": 442,
      "max": [
        0.8801217079162598,
        1.428633689880371,
        2.948512077331543
      ],
      "min": [
        -0.8801217079162598,
        0.16560503840446472,
        0.3439643383026123
      ],
      "type": "VEC3"
    },
    {
      "bufferView": 2,
      "byteOffset": 534936,
      "componentType": 5126,
      "count": 442,
      "max": [
        1.0,
        1.0,
        1.0
      ],
      "min": [
        -1.0,
        -1.0,
        -1.0
      ],
      "type": "VEC3"
    },
    {
      "bufferView": 1,
      "byteOffset": 176544,
      "componentType": 5126,
      "count": 442,
      "max": [
        0.12130727618932724,
        1.211926817893982
      ],
      "min": [
        0.013902192004024982,
        1.0208872556686401
      ],
      "type": "VEC2"
    },
    {
      "bufferView": 0,
      "byteOffset": 284892,
      "componentType": 5125,
      "count": 792,
      "type": "SCALAR"
    }
  ],
  "asset": {
    "extras": {
      "author": "evolver55555 (https://sketchfab.com/evolver55555)",
      "license": "CC-BY-4.0 (http://creativecommons.org/licenses/by/4.0/)",
      "source": "https://sketchfab.com/3d-models/portal-390cbae7b9e54b0f854d52c9b2562ca3",
      "title": "Portal"
    },
    "generator": "Sketchfab-15.28.0",
    "version": "2.0"
  },
  "bufferViews": [
    {
      "buffer": 0,
      "byteLength": 288060,
      "name": "floatBufferViews",
      "target": 34963
    },
    {
      "buffer": 0,
      "byteLength": 180080,
      "byteOffset": 288060,
      "byteStride": 8,
      "name": "floatBufferViews",
      "target": 34962
    },
    {
      "buffer": 0,
      "byteLength": 540240,
      "byteOffset": 468140,
      "byteStride": 12,
      "name": "floatBufferViews",
      "target": 34962
    },
    {
      "buffer": 0,
      "byteLength": 347584,
      "byteOffset": 1008380,
      "byteStride": 16,
      "name": "floatBufferViews",
      "target": 34962
    }
  ],
  "buffers": [
    {
      "byteLength": 1355964,
      "uri": "scene.bin"
    }
  ],
  "extensionsUsed": [
    "KHR_materials_emissive_strength"
  ],
  "images": [
    {
      "uri": "textures/Material.001_baseColor.png"
    },
    {
      "uri": "textures/Material.001_metallicRoughness.png"
    },
    {
      "uri": "textures/Material.001_normal.png"
    },
    {
      "uri": "textures/Glass.001_baseColor.png"
    },
    {
      "uri": "textures/Glass.001_metallicRoughness.png"
    },
    {
      "uri": "textures/Light.001_emissive.png"
    }
  ],
  "materials": [
    {
      "doubleSided": true,
      "name": "Material.001",
      "normalTexture": {
        "index": 2
      },
      "pbrMetallicRoughness": {
        "baseColorTexture": {
          "index": 0
        },
        "metallicRoughnessTexture": {
          "index": 1
        }
      }
    },
    {
      "alphaMode": "BLEND",
      "doubleSided": true,
      "name": "Glass.001",
      "pbrMetallicRoughness": {
        "baseColorFactor": [
          1.0,
          1.0,
          1.0,
          0.5109522748087062
        ],
        "baseColorTexture": {
          "index": 3
        },
        "metallicRoughnessTexture": {
          "index": 4
        }
      }
    },
    {
      "doubleSided": true,
      "emissiveFactor": [
        1.0,
        1.0,
        1.0
      ],
      "emissiveTexture": {
        "index": 5
      },
      "extensions": {
        "KHR_materials_emissive_strength": {
          "emissiveStrength": 10.0
        }
      },
      "name": "Light.001",
      "pbrMetallicRoughness": {
        "baseColorFactor": [
          0.8,
          0.8,
          0.8,
          1.0
        ],
        "metallicFactor": 0.0,
        "roughnessFactor": 0.8211145618000169
      }
    }
  ],
  "meshes": [
    {
      "name": "Portal_001_Material.001_0",
      "primitives": [
        {
          "attributes": {
            "NORMAL": 1,
            "POSITION": 0,
            "TANGENT": 2,
            "TEXCOORD_0": 3
          },
          "indices": 4,
          "material": 0,
          "mode": 4
        }
      ]
    },
    {
      "name": "Portal_001_Glass.001_0",
      "primitives": [
        {
          "attributes": {
            "NORMAL": 6,
            "POSITION": 5,
            "TEXCOORD_0": 7
          },
          "indices": 8,
          "material": 1,
          "mode": 4
        }
      ]
    },
    {
      "name": "Portal_001_Light.001_0",
      "primitives": [
        {
          "attributes": {
            "NORMAL": 10,
            "POSITION": 9,
            "TEXCOORD_0": 11
          },
          "indices": 12,
          "material": 2,
          "mode": 4
        }
      ]
    }
  ],
  "nodes": [
    {
      "children": [
        1
      ],
      "matrix": [
        0.7601892948150635,
        0.0,
        0.0,
        0.0,
        0.0,
        1.6879593163544892e-16,
        -0.7601892948150635,
        0.0,
        0.0,
        0.7601892948150635,
        1.6879593163544892e-16,
        0.0,
        0.0,
        0.0,
        0.0,
        1.0
      ],
      "name": "Sketchfab_model"
    },
    {
      "children": [
        2
      ],
      "matrix": [
        0.009999999776482582,
        0.0,
        0.0,
        0.0,
        0.0,
        0.0,
        0.009999999776482582,
        0.0,
        0.0,
        -0.009999999776482582,
        0.0,
        0.0,
        0.0,
        0.0,
        0.0,
        1.0
      ],
      "name": "Portal_001.fbx"
    },
    {
      "children": [
        3
      ],
      "name": "RootNode"
    },
    {
      "children": [
        4,
        5,
        6
      ],
      "matrix": [
        100.0,
        0.0,
        0.0,
        0.0,
        0.0,
        -1.629206793918314e-05,
        -99.99999999999868,
        0.0,
        0.0,
        99.99999999999868,
        -1.629206793918314e-05,
        0.0,
        0.0,
        0.0,
        0.0,
        1.0
      ],
      "name": "Portal_001"
    },
    {
      "mesh": 0,
      "name": "Portal_001_Material.001_0"
    },
    {
      "mesh": 1,
      "name": "Portal_001_Glass.001_0"
    },
    {
      "mesh": 2,
      "name": "Portal_001_Light.001_0"
    }
  ],
  "samplers": [
    {
      "magFilter": 9729,
      "minFilter": 9987,
      "wrapS": 10497,
      "wrapT": 10497
    }
  ],
  "scene": 0,
  "scenes": [
    {
      "name": "Sketchfab_Scene",
      "nodes": [
        0
      ]
    }
  ],
  "textures": [
    {
      "sampler": 0,
      "source": 0
    },
    {
      "sampler": 0,
      "source": 1
    },
    {
      "sampler": 0,
      "source": 2
    },
    {
      "sampler": 0,
      "source": 3
    },
    {
      "sampler": 0,
      "source": 4
    },
    {
      "sampler": 0,
      "source": 5
    }
  ]
}
